<?xml version="1.0" encoding="UTF-8"?>
<!DOCTYPE svg PUBLIC "-//W3C//DTD SVG 1.1//EN" "http://www.w3.org/Graphics/SVG/1.1/DTD/svg11.dtd">
<svg xmlns="http://www.w3.org/2000/svg" version="1.1" width="410px" height="570px" style="shape-rendering:geometricPrecision; text-rendering:geometricPrecision; image-rendering:optimizeQuality; fill-rule:evenodd; clip-rule:evenodd" xmlns:xlink="http://www.w3.org/1999/xlink">
<g><path style="opacity:1" fill="#1ea0d6" d="M -0.5,-0.5 C 136.167,-0.5 272.833,-0.5 409.5,-0.5C 409.5,189.5 409.5,379.5 409.5,569.5C 272.833,569.5 136.167,569.5 -0.5,569.5C -0.5,379.5 -0.5,189.5 -0.5,-0.5 Z"/></g>
<g><path style="opacity:1" fill="#09577b" d="M 118.5,129.5 C 112.865,128.963 107.532,129.63 102.5,131.5C 105.099,117.405 113.599,110.405 128,110.5C 141.197,110.675 147.697,117.342 147.5,130.5C 142.833,130.5 138.167,130.5 133.5,130.5C 134.458,124.625 131.958,121.625 126,121.5C 121.491,122.128 118.991,124.795 118.5,129.5 Z"/></g>
<g><path style="opacity:1" fill="#07577c" d="M 209.5,129.5 C 204.833,129.5 200.167,129.5 195.5,129.5C 195.5,126.833 195.5,124.167 195.5,121.5C 193.833,121.5 192.167,121.5 190.5,121.5C 190.552,117.802 190.886,114.135 191.5,110.5C 200.525,110.168 209.525,110.502 218.5,111.5C 217.618,114.791 216.952,118.124 216.5,121.5C 214.5,121.5 212.5,121.5 210.5,121.5C 210.167,124.167 209.833,126.833 209.5,129.5 Z"/></g>
<g><path style="opacity:1" fill="#06567a" d="M 236.5,130.5 C 231.595,129.555 226.595,129.221 221.5,129.5C 222.451,123.625 223.451,117.792 224.5,112C 236.167,111.333 247.833,111.333 259.5,112C 258.427,115.12 257.427,118.287 256.5,121.5C 250.202,122.496 243.868,122.83 237.5,122.5C 236.908,125.127 236.575,127.794 236.5,130.5 Z"/></g>
<g><path style="opacity:1" fill="#06567a" d="M 275.5,130.5 C 270.93,129.559 266.263,129.226 261.5,129.5C 262.094,123.49 262.76,117.49 263.5,111.5C 274.167,111.5 284.833,111.5 295.5,111.5C 295.5,115.167 295.5,118.833 295.5,122.5C 289.167,122.5 282.833,122.5 276.5,122.5C 276.599,125.237 276.265,127.904 275.5,130.5 Z"/></g>
<g><path style="opacity:1" fill="#08577a" d="M 167.5,130.5 C 162.405,130.779 157.405,130.445 152.5,129.5C 153.255,123.797 154.255,118.131 155.5,112.5C 160.12,111.507 164.786,111.173 169.5,111.5C 169.558,117.919 168.891,124.253 167.5,130.5 Z"/></g>
<g><path style="opacity:1" fill="#3a716d" d="M 152.5,129.5 C 157.405,130.445 162.405,130.779 167.5,130.5C 167.768,132.099 167.434,133.432 166.5,134.5C 162.285,132.564 157.619,131.897 152.5,132.5C 152.5,131.5 152.5,130.5 152.5,129.5 Z"/></g>
<g><path style="opacity:1" fill="#3b6e6a" d="M 118.5,129.5 C 118.768,131.099 118.434,132.432 117.5,133.5C 112.695,132.513 107.695,132.179 102.5,132.5C 102.5,132.167 102.5,131.833 102.5,131.5C 107.532,129.63 112.865,128.963 118.5,129.5 Z"/></g>
<g><path style="opacity:1" fill="#386d6b" d="M 195.5,129.5 C 200.167,129.5 204.833,129.5 209.5,129.5C 209.768,131.099 209.434,132.432 208.5,133.5C 204.03,132.514 199.363,132.181 194.5,132.5C 194.263,131.209 194.596,130.209 195.5,129.5 Z"/></g>
<g><path style="opacity:1" fill="#40756d" d="M 221.5,129.5 C 226.595,129.221 231.595,129.555 236.5,130.5C 242.167,130.5 247.833,130.5 253.5,130.5C 253.784,132.415 253.451,134.081 252.5,135.5C 252.5,135.167 252.5,134.833 252.5,134.5C 242.554,132.525 232.221,131.858 221.5,132.5C 221.5,131.5 221.5,130.5 221.5,129.5 Z"/></g>
<g><path style="opacity:1" fill="#507863" d="M 261.5,129.5 C 266.263,129.226 270.93,129.559 275.5,130.5C 281.167,130.5 286.833,130.5 292.5,130.5C 292.5,131.5 292.5,132.5 292.5,133.5C 281.915,134.476 271.248,134.809 260.5,134.5C 261.038,132.883 261.371,131.216 261.5,129.5 Z"/></g>
<g><path style="opacity:1" fill="#5f7d5d" d="M 221.5,132.5 C 232.221,131.858 242.554,132.525 252.5,134.5C 242.167,134.5 231.833,134.5 221.5,134.5C 221.5,133.833 221.5,133.167 221.5,132.5 Z"/></g>
<g><path style="opacity:1" fill="#6c865d" d="M 152.5,132.5 C 157.619,131.897 162.285,132.564 166.5,134.5C 166.5,134.833 166.5,135.167 166.5,135.5C 161.405,135.221 156.405,135.555 151.5,136.5C 151.833,135.167 152.167,133.833 152.5,132.5 Z"/></g>
<g><path style="opacity:1" fill="#758956" d="M 102.5,132.5 C 107.695,132.179 112.695,132.513 117.5,133.5C 117.5,134.5 117.5,135.5 117.5,136.5C 112.5,136.5 107.5,136.5 102.5,136.5C 102.5,135.167 102.5,133.833 102.5,132.5 Z"/></g>
<g><path style="opacity:1" fill="#7e8e52" d="M 221.5,134.5 C 231.833,134.5 242.167,134.5 252.5,134.5C 252.5,134.833 252.5,135.167 252.5,135.5C 252.5,135.833 252.5,136.167 252.5,136.5C 242.167,136.5 231.833,136.5 221.5,136.5C 221.5,135.833 221.5,135.167 221.5,134.5 Z"/></g>
<g><path style="opacity:1" fill="#809055" d="M 292.5,133.5 C 292.784,135.415 292.451,137.081 291.5,138.5C 281.554,136.525 271.221,135.858 260.5,136.5C 260.5,135.833 260.5,135.167 260.5,134.5C 271.248,134.809 281.915,134.476 292.5,133.5 Z"/></g>
<g><path style="opacity:1" fill="#9a9b49" d="M 260.5,136.5 C 271.221,135.858 281.554,136.525 291.5,138.5C 281.167,138.5 270.833,138.5 260.5,138.5C 260.5,137.833 260.5,137.167 260.5,136.5 Z"/></g>
<g><path style="opacity:1" fill="#aaa54b" d="M 102.5,136.5 C 107.5,136.5 112.5,136.5 117.5,136.5C 117.5,139.167 117.5,141.833 117.5,144.5C 116.566,143.432 116.232,142.099 116.5,140.5C 111.5,140.5 106.5,140.5 101.5,140.5C 101.833,139.167 102.167,137.833 102.5,136.5 Z"/></g>
<g><path style="opacity:1" fill="#9fa04e" d="M 166.5,135.5 C 166.784,137.415 166.451,139.081 165.5,140.5C 161.285,138.564 156.619,137.897 151.5,138.5C 151.5,137.833 151.5,137.167 151.5,136.5C 156.405,135.555 161.405,135.221 166.5,135.5 Z"/></g>
<g><path style="opacity:1" fill="#8f9854" d="M 194.5,132.5 C 199.363,132.181 204.03,132.514 208.5,133.5C 208.806,136.385 208.473,139.052 207.5,141.5C 207.586,140.504 207.252,139.671 206.5,139C 202.179,138.501 197.846,138.334 193.5,138.5C 194.15,136.565 194.483,134.565 194.5,132.5 Z"/></g>
<g><path style="opacity:1" fill="#a09e4a" d="M 221.5,136.5 C 231.833,136.5 242.167,136.5 252.5,136.5C 252.5,137.167 252.5,137.833 252.5,138.5C 241.833,138.5 231.167,138.5 220.5,138.5C 220.328,137.508 220.662,136.842 221.5,136.5 Z"/></g>
<g><path style="opacity:1" fill="#beb149" d="M 260.5,138.5 C 270.833,138.5 281.167,138.5 291.5,138.5C 291.5,139.5 291.5,140.5 291.5,141.5C 285.833,141.5 280.167,141.5 274.5,141.5C 269.6,140.2 264.6,140.2 259.5,141.5C 259.557,140.391 259.89,139.391 260.5,138.5 Z"/></g>
<g><path style="opacity:1" fill="#c2b348" d="M 220.5,138.5 C 231.167,138.5 241.833,138.5 252.5,138.5C 252.5,139.5 252.5,140.5 252.5,141.5C 246.5,141.5 240.5,141.5 234.5,141.5C 230.03,140.514 225.363,140.181 220.5,140.5C 220.5,139.833 220.5,139.167 220.5,138.5 Z"/></g>
<g><path style="opacity:1" fill="#eac133" d="M 151.5,138.5 C 156.619,137.897 161.285,138.564 165.5,140.5C 165.5,142.833 165.5,145.167 165.5,147.5C 170.833,147.5 176.167,147.5 181.5,147.5C 181.5,151.167 181.5,154.833 181.5,158.5C 170.5,158.5 159.5,158.5 148.5,158.5C 149.497,151.873 150.497,145.206 151.5,138.5 Z"/></g>
<g><path style="opacity:1" fill="#e6c23b" d="M 193.5,138.5 C 197.846,138.334 202.179,138.501 206.5,139C 207.252,139.671 207.586,140.504 207.5,141.5C 207.756,143.792 207.423,145.959 206.5,148C 208.473,148.495 210.473,148.662 212.5,148.5C 212.062,152.072 211.396,155.572 210.5,159C 202.173,159.5 193.84,159.666 185.5,159.5C 185.552,155.802 185.886,152.135 186.5,148.5C 188.5,148.5 190.5,148.5 192.5,148.5C 192.46,145.119 192.793,141.786 193.5,138.5 Z"/></g>
<g><path style="opacity:1" fill="#ebc233" d="M 220.5,140.5 C 225.363,140.181 230.03,140.514 234.5,141.5C 233.899,147.362 232.899,153.029 231.5,158.5C 226.706,159.097 222.373,158.43 218.5,156.5C 218.949,151.137 219.616,145.804 220.5,140.5 Z"/></g>
<g><path style="opacity:1" fill="#ebc233" d="M 274.5,141.5 C 273.049,146.959 272.049,152.626 271.5,158.5C 267.167,158.5 262.833,158.5 258.5,158.5C 258.5,156.833 258.5,155.167 258.5,153.5C 258.833,149.5 259.167,145.5 259.5,141.5C 264.6,140.2 269.6,140.2 274.5,141.5 Z"/></g>
<g><path style="opacity:1" fill="#eac335" d="M 101.5,140.5 C 106.5,140.5 111.5,140.5 116.5,140.5C 116.232,142.099 116.566,143.432 117.5,144.5C 117.511,146.017 118.177,147.184 119.5,148C 126.847,150.556 131.18,148.056 132.5,140.5C 136.783,139.508 141.116,139.174 145.5,139.5C 141.738,156.063 131.404,162.563 114.5,159C 105.666,155.999 101.332,149.832 101.5,140.5 Z"/></g>
<g><path style="opacity:1" fill="#c6d474" d="M 181.5,147.5 C 182.483,151.298 182.817,155.298 182.5,159.5C 170.988,159.828 159.654,159.495 148.5,158.5C 159.5,158.5 170.5,158.5 181.5,158.5C 181.5,154.833 181.5,151.167 181.5,147.5 Z"/></g>
<g><path style="opacity:1" fill="#bccf79" d="M 218.5,156.5 C 222.373,158.43 226.706,159.097 231.5,158.5C 227.03,159.486 222.363,159.819 217.5,159.5C 217.263,158.209 217.596,157.209 218.5,156.5 Z"/></g>
<g><path style="opacity:1" fill="#bdce73" d="M 258.5,153.5 C 258.5,155.167 258.5,156.833 258.5,158.5C 262.833,158.5 267.167,158.5 271.5,158.5C 267.03,159.486 262.363,159.819 257.5,159.5C 257.205,157.265 257.539,155.265 258.5,153.5 Z"/></g>
</svg>
