<?xml version="1.0" encoding="UTF-8"?>
<!DOCTYPE svg PUBLIC "-//W3C//DTD SVG 1.1//EN" "http://www.w3.org/Graphics/SVG/1.1/DTD/svg11.dtd">
<svg xmlns="http://www.w3.org/2000/svg" version="1.1" width="410px" height="570px" style="shape-rendering:geometricPrecision; text-rendering:geometricPrecision; image-rendering:optimizeQuality; fill-rule:evenodd; clip-rule:evenodd" xmlns:xlink="http://www.w3.org/1999/xlink">
<g><path style="opacity:1" fill="#2f8800" d="M -0.5,-0.5 C 136.167,-0.5 272.833,-0.5 409.5,-0.5C 409.5,189.5 409.5,379.5 409.5,569.5C 272.833,569.5 136.167,569.5 -0.5,569.5C -0.5,379.5 -0.5,189.5 -0.5,-0.5 Z"/></g>
<g><path style="opacity:1" fill="#7ed957" d="M 250.5,101.5 C 247.167,101.5 243.833,101.5 240.5,101.5C 239.967,114.087 238.967,126.754 237.5,139.5C 235.668,141.894 233.168,142.894 230,142.5C 227.282,142.436 225.115,141.436 223.5,139.5C 223.209,126.503 222.209,113.837 220.5,101.5C 209.162,101.667 197.828,101.5 186.5,101C 181.845,98.1034 180.345,93.9367 182,88.5C 182.465,87.0692 183.299,85.9025 184.5,85C 191.05,83.5796 197.716,83.0796 204.5,83.5C 210.425,83.8082 216.259,83.4749 222,82.5C 222.821,75.6536 222.654,68.987 221.5,62.5C 220.889,56.5663 221.722,50.8996 224,45.5C 230.38,40.976 235.713,41.976 240,48.5C 240.333,59.5 240.667,70.5 241,81.5C 241.5,82 242,82.5 242.5,83C 253.5,83.3333 264.5,83.6667 275.5,84C 280.155,86.8966 281.655,91.0633 280,96.5C 279.535,97.9308 278.701,99.0975 277.5,100C 268.608,101.443 259.608,101.943 250.5,101.5 Z"/></g>
<g><path style="opacity:1" fill="#39b6fc" d="M 219.5,61.5 C 220.427,68.443 220.76,75.443 220.5,82.5C 215.167,82.5 209.833,82.5 204.5,82.5C 188.554,76.3166 175.388,79.9833 165,93.5C 156.658,109.957 159.492,124.124 173.5,136C 188.928,144.421 202.762,142.255 215,129.5C 216.765,126.968 218.265,124.301 219.5,121.5C 220.167,125.833 220.833,130.167 221.5,134.5C 221.12,136.698 221.787,138.365 223.5,139.5C 225.115,141.436 227.282,142.436 230,142.5C 233.168,142.894 235.668,141.894 237.5,139.5C 238.167,139.167 238.833,138.833 239.5,138.5C 241.479,126.88 242.146,114.88 241.5,102.5C 244.5,102.5 247.5,102.5 250.5,102.5C 252.612,114.824 251.445,126.824 247,138.5C 228.333,169.167 209.667,199.833 191,230.5C 171.937,200.431 153.27,170.098 135,139.5C 123.13,103.761 133.63,76.9277 166.5,59C 184.568,52.3745 202.235,53.2079 219.5,61.5 Z"/></g>
<g><path style="opacity:1" fill="#308907" d="M 204.5,82.5 C 204.5,82.8333 204.5,83.1667 204.5,83.5C 197.716,83.0796 191.05,83.5796 184.5,85C 183.299,85.9025 182.465,87.0692 182,88.5C 180.345,93.9367 181.845,98.1034 186.5,101C 197.828,101.5 209.162,101.667 220.5,101.5C 221.623,106.222 221.623,110.888 220.5,115.5C 220.167,117.5 219.833,119.5 219.5,121.5C 218.265,124.301 216.765,126.968 215,129.5C 202.762,142.255 188.928,144.421 173.5,136C 159.492,124.124 156.658,109.957 165,93.5C 175.388,79.9833 188.554,76.3166 204.5,82.5 Z"/></g>
<g><path style="opacity:1" fill="#57c3bc" d="M 219.5,61.5 C 220.167,61.8333 220.833,62.1667 221.5,62.5C 222.654,68.987 222.821,75.6536 222,82.5C 216.259,83.4749 210.425,83.8082 204.5,83.5C 204.5,83.1667 204.5,82.8333 204.5,82.5C 209.833,82.5 215.167,82.5 220.5,82.5C 220.76,75.443 220.427,68.443 219.5,61.5 Z"/></g>
<g><path style="opacity:1" fill="#48bdd1" d="M 240.5,101.5 C 243.833,101.5 247.167,101.5 250.5,101.5C 250.5,101.833 250.5,102.167 250.5,102.5C 247.5,102.5 244.5,102.5 241.5,102.5C 242.146,114.88 241.479,126.88 239.5,138.5C 240.44,126.204 240.773,113.871 240.5,101.5 Z"/></g>
<g><path style="opacity:1" fill="#72d479" d="M 240.5,101.5 C 240.773,113.871 240.44,126.204 239.5,138.5C 238.833,138.833 238.167,139.167 237.5,139.5C 238.967,126.754 239.967,114.087 240.5,101.5 Z"/></g>
<g><path style="opacity:1" fill="#47b9d5" d="M 220.5,115.5 C 221.49,121.645 221.823,127.978 221.5,134.5C 220.833,130.167 220.167,125.833 219.5,121.5C 219.833,119.5 220.167,117.5 220.5,115.5 Z"/></g>
<g><path style="opacity:1" fill="#64cc9d" d="M 220.5,101.5 C 222.209,113.837 223.209,126.503 223.5,139.5C 221.787,138.365 221.12,136.698 221.5,134.5C 221.823,127.978 221.49,121.645 220.5,115.5C 221.623,110.888 221.623,106.222 220.5,101.5 Z"/></g>
</svg>
