<?xml version="1.0" encoding="UTF-8"?>
<!DOCTYPE svg PUBLIC "-//W3C//DTD SVG 1.1//EN" "http://www.w3.org/Graphics/SVG/1.1/DTD/svg11.dtd">
<svg xmlns="http://www.w3.org/2000/svg" version="1.1" width="410px" height="570px" style="shape-rendering:geometricPrecision; text-rendering:geometricPrecision; image-rendering:optimizeQuality; fill-rule:evenodd; clip-rule:evenodd" xmlns:xlink="http://www.w3.org/1999/xlink">
<g><path style="opacity:1" fill="#006c92" d="M -0.5,-0.5 C 136.167,-0.5 272.833,-0.5 409.5,-0.5C 409.5,189.5 409.5,379.5 409.5,569.5C 272.833,569.5 136.167,569.5 -0.5,569.5C -0.5,379.5 -0.5,189.5 -0.5,-0.5 Z"/></g>
<g><path style="opacity:1" fill="#65ebb7" d="M 250.5,168.5 C 250.167,168.5 249.833,168.5 249.5,168.5C 258.305,158.566 264.805,147.232 269,134.5C 272.011,114.016 263.844,100.182 244.5,93C 225.682,89.7421 212.016,96.5754 203.5,113.5C 192.266,93.5549 175.932,87.7215 154.5,96C 136.181,108.794 131.848,125.294 141.5,145.5C 139.636,146.793 137.636,146.793 135.5,145.5C 126.28,133.726 120.947,120.393 119.5,105.5C 121.037,83.4661 132.37,69.2994 153.5,63C 176.541,59.9334 193.041,68.7668 203,89.5C 218.11,62.7973 239.61,55.964 267.5,69C 284.24,81.5479 290.073,98.0479 285,118.5C 277.598,138.056 266.098,154.723 250.5,168.5 Z"/></g>
<g><path style="opacity:1" fill="#28aadc" d="M 249.5,168.5 C 243.833,173.5 238.5,178.833 233.5,184.5C 224.202,193.57 214.035,201.57 203,208.5C 197.147,205.235 191.814,201.235 187,196.5C 186.333,193.833 186.333,191.167 187,188.5C 187.5,186.667 188.667,185.5 190.5,185C 199.5,184.667 208.5,184.333 217.5,184C 218.931,183.535 220.097,182.701 221,181.5C 221.667,170.5 221.667,159.5 221,148.5C 219.833,147.333 218.667,146.167 217.5,145C 208.092,144.918 198.759,144.251 189.5,143C 187.996,141.509 187.163,139.676 187,137.5C 186.622,130.811 186.622,124.144 187,117.5C 186.496,113.98 184.663,111.48 181.5,110C 173.141,108.031 164.808,108.031 156.5,110C 155.299,110.903 154.465,112.069 154,113.5C 153.667,122.833 153.333,132.167 153,141.5C 149.873,144.71 146.039,146.043 141.5,145.5C 131.848,125.294 136.181,108.794 154.5,96C 175.932,87.7215 192.266,93.5549 203.5,113.5C 212.016,96.5754 225.682,89.7421 244.5,93C 263.844,100.182 272.011,114.016 269,134.5C 264.805,147.232 258.305,158.566 249.5,168.5 Z"/></g>
<g><path style="opacity:1" fill="#6bddd5" d="M 249.5,168.5 C 249.833,168.5 250.167,168.5 250.5,168.5C 245.443,174.559 239.776,179.893 233.5,184.5C 238.5,178.833 243.833,173.5 249.5,168.5 Z"/></g>
</svg>
