<?xml version="1.0" encoding="UTF-8"?>
<!DOCTYPE svg PUBLIC "-//W3C//DTD SVG 1.1//EN" "http://www.w3.org/Graphics/SVG/1.1/DTD/svg11.dtd">
<svg xmlns="http://www.w3.org/2000/svg" version="1.1" width="410px" height="570px" style="shape-rendering:geometricPrecision; text-rendering:geometricPrecision; image-rendering:optimizeQuality; fill-rule:evenodd; clip-rule:evenodd" xmlns:xlink="http://www.w3.org/1999/xlink">
<g><path style="opacity:1" fill="#ca2627" d="M -0.5,-0.5 C 136.167,-0.5 272.833,-0.5 409.5,-0.5C 409.5,189.5 409.5,379.5 409.5,569.5C 272.833,569.5 136.167,569.5 -0.5,569.5C -0.5,379.5 -0.5,189.5 -0.5,-0.5 Z"/></g>
<g><path style="opacity:1" fill="#b6afa8" d="M 258.5,71.5 C 261.448,71.2229 264.281,71.5562 267,72.5C 267.667,79.8333 267.667,87.1667 267,94.5C 259.803,86.9686 252.303,79.8019 244.5,73C 249.351,72.8255 254.018,72.3255 258.5,71.5 Z"/></g>
<g><path style="opacity:1" fill="#c6c5bf" d="M 205.5,59.5 C 213.703,65.2663 222.703,69.433 232.5,72C 244.645,80.8129 255.478,90.9796 265,102.5C 267.106,124.187 263.273,144.854 253.5,164.5C 236.193,166.756 219.859,163.756 204.5,155.5C 204.781,150.435 204.448,145.435 203.5,140.5C 204.161,121.303 204.827,102.137 205.5,83C 204.426,82.2613 203.759,81.2613 203.5,80C 204.149,73.1234 204.815,66.2901 205.5,59.5 Z"/></g>
<g><path style="opacity:1" fill="#b3afa8" d="M 205.5,59.5 C 204.815,66.2901 204.149,73.1234 203.5,80C 203.759,81.2613 204.426,82.2613 205.5,83C 204.827,102.137 204.161,121.303 203.5,140.5C 204.448,145.435 204.781,150.435 204.5,155.5C 177.128,143.298 156.295,123.964 142,97.5C 141.184,88.9213 141.351,80.4213 142.5,72C 165.164,76.1026 185.83,71.6026 204.5,58.5C 205.107,58.6236 205.44,58.9569 205.5,59.5 Z"/></g>
<g><path style="opacity:1" fill="#c6c4bf" d="M 204.5,169.5 C 203.852,182.876 204.519,195.876 206.5,208.5C 205.399,209.598 204.066,209.765 202.5,209C 179.849,195.35 162.349,176.85 150,153.5C 146.87,144.658 144.87,135.658 144,126.5C 160.425,146.091 180.592,160.424 204.5,169.5 Z"/></g>
<g><path style="opacity:1" fill="#b3afa9" d="M 204.5,169.5 C 216.994,174.408 229.994,177.241 243.5,178C 232.946,190.572 220.612,200.739 206.5,208.5C 204.519,195.876 203.852,182.876 204.5,169.5 Z"/></g>
</svg>
