<?xml version="1.0" encoding="UTF-8"?>
<!DOCTYPE svg PUBLIC "-//W3C//DTD SVG 1.1//EN" "http://www.w3.org/Graphics/SVG/1.1/DTD/svg11.dtd">
<svg xmlns="http://www.w3.org/2000/svg" version="1.1" width="410px" height="570px" style="shape-rendering:geometricPrecision; text-rendering:geometricPrecision; image-rendering:optimizeQuality; fill-rule:evenodd; clip-rule:evenodd" xmlns:xlink="http://www.w3.org/1999/xlink">
<g><path style="opacity:1" fill="#1fc0dc" d="M -0.5,-0.5 C 136.167,-0.5 272.833,-0.5 409.5,-0.5C 409.5,189.5 409.5,379.5 409.5,569.5C 272.833,569.5 136.167,569.5 -0.5,569.5C -0.5,379.5 -0.5,189.5 -0.5,-0.5 Z"/></g>
<g><path style="opacity:1" fill="#96e0e7" d="M 178.5,57.5 C 174.228,58.6509 169.894,59.6509 165.5,60.5C 165.369,59.6236 165.702,58.9569 166.5,58.5C 169.167,57.5 171.833,56.5 174.5,55.5C 176.026,55.9943 177.359,56.661 178.5,57.5 Z"/></g>
<g><path style="opacity:1" fill="#2f7284" d="M 178.5,57.5 C 179.71,57.9321 180.71,58.5987 181.5,59.5C 178.353,59.7366 175.353,60.5699 172.5,62C 171.058,62.3768 170.058,63.2101 169.5,64.5C 167.833,63.5 166.5,62.1667 165.5,60.5C 169.894,59.6509 174.228,58.6509 178.5,57.5 Z"/></g>
<g><path style="opacity:1" fill="#043238" d="M 181.5,59.5 C 182.6,60.6049 183.267,61.9382 183.5,63.5C 183.384,66.8599 183.051,70.1933 182.5,73.5C 181.5,74.1667 180.5,74.8333 179.5,75.5C 177.319,73.2359 175.985,70.5692 175.5,67.5C 174.368,66.6457 173.035,66.6457 171.5,67.5C 170.833,66.5 170.167,65.5 169.5,64.5C 170.058,63.2101 171.058,62.3768 172.5,62C 175.353,60.5699 178.353,59.7366 181.5,59.5 Z"/></g>
<g><path style="opacity:1" fill="#88d0dd" d="M 219.5,63.5 C 219.5,63.8333 219.5,64.1667 219.5,64.5C 218.013,65.8036 216.346,66.9702 214.5,68C 218.688,68.1762 222.688,68.6762 226.5,69.5C 220.642,69.1778 214.975,69.5111 209.5,70.5C 209.167,70.5 208.833,70.5 208.5,70.5C 204.493,66.8255 199.827,64.1588 194.5,62.5C 197.105,61.4079 199.938,60.7413 203,60.5C 208.571,61.2337 214.071,62.2337 219.5,63.5 Z"/></g>
<g><path style="opacity:1" fill="#26c0db" d="M 186.5,64.5 C 187.29,65.7942 188.29,66.9609 189.5,68C 194.694,69.9001 200.027,71.0668 205.5,71.5C 206.391,70.8902 207.391,70.5569 208.5,70.5C 208.833,70.5 209.167,70.5 209.5,70.5C 222.172,69.8675 234.172,72.3675 245.5,78C 253.26,83.611 256.093,91.111 254,100.5C 251.748,107.352 248.248,113.352 243.5,118.5C 242.661,117.359 241.994,116.026 241.5,114.5C 238.574,113.078 236.074,111.078 234,108.5C 231.42,103.672 228.586,99.005 225.5,94.5C 223.237,90.8971 220.57,87.5638 217.5,84.5C 211.149,82.258 204.483,81.258 197.5,81.5C 194.5,81.5 191.5,81.5 188.5,81.5C 186.621,80.6586 184.621,80.3253 182.5,80.5C 182.158,79.6618 181.492,79.3284 180.5,79.5C 180.167,78.1667 179.833,76.8333 179.5,75.5C 180.5,74.8333 181.5,74.1667 182.5,73.5C 183.517,70.2565 184.85,67.2565 186.5,64.5 Z"/></g>
<g><path style="opacity:1" fill="#05373e" d="M 193.5,62.5 C 197.5,65.5 201.5,68.5 205.5,71.5C 200.027,71.0668 194.694,69.9001 189.5,68C 188.29,66.9609 187.29,65.7942 186.5,64.5C 186.5,64.1667 186.5,63.8333 186.5,63.5C 188.45,61.2472 190.784,60.9139 193.5,62.5 Z"/></g>
<g><path style="opacity:1" fill="#30c2dc" d="M 219.5,64.5 C 233.779,63.7684 247.446,66.2684 260.5,72C 273.462,79.8843 276.962,90.7177 271,104.5C 258.45,124.887 241.617,140.554 220.5,151.5C 220.267,149.938 219.6,148.605 218.5,147.5C 231.411,138.425 242.911,127.758 253,115.5C 260.064,107.041 262.731,97.3742 261,86.5C 257.552,79.5219 252.052,75.0219 244.5,73C 238.608,71.1929 232.608,70.0262 226.5,69.5C 222.688,68.6762 218.688,68.1762 214.5,68C 216.346,66.9702 218.013,65.8036 219.5,64.5 Z"/></g>
<g><path style="opacity:1" fill="#2b7281" d="M 193.5,62.5 C 193.833,62.5 194.167,62.5 194.5,62.5C 199.827,64.1588 204.493,66.8255 208.5,70.5C 207.391,70.5569 206.391,70.8902 205.5,71.5C 201.5,68.5 197.5,65.5 193.5,62.5 Z"/></g>
<g><path style="opacity:1" fill="#2b8695" d="M 183.5,63.5 C 184.5,63.5 185.5,63.5 186.5,63.5C 186.5,63.8333 186.5,64.1667 186.5,64.5C 184.85,67.2565 183.517,70.2565 182.5,73.5C 183.051,70.1933 183.384,66.8599 183.5,63.5 Z"/></g>
<g><path style="opacity:1" fill="#4a7b82" d="M 175.5,67.5 C 175.985,70.5692 177.319,73.2359 179.5,75.5C 179.833,76.8333 180.167,78.1667 180.5,79.5C 180.158,80.3382 179.492,80.6716 178.5,80.5C 174.74,74.638 173.073,75.3047 173.5,82.5C 172.128,81.4884 170.795,80.4884 169.5,79.5C 170.172,78.7326 171.005,78.0659 172,77.5C 173.459,74.2301 174.626,70.8968 175.5,67.5 Z"/></g>
<g><path style="opacity:1" fill="#9ab9b5" d="M 175.5,67.5 C 174.626,70.8968 173.459,74.2301 172,77.5C 171.005,78.0659 170.172,78.7326 169.5,79.5C 169.167,79.5 168.833,79.5 168.5,79.5C 168.841,75.6464 170.174,72.1464 172.5,69C 171.944,68.6174 171.611,68.1174 171.5,67.5C 173.035,66.6457 174.368,66.6457 175.5,67.5 Z"/></g>
<g><path style="opacity:1" fill="#d5e8e4" d="M 165.5,60.5 C 166.5,62.1667 167.833,63.5 169.5,64.5C 170.167,65.5 170.833,66.5 171.5,67.5C 171.611,68.1174 171.944,68.6174 172.5,69C 170.174,72.1464 168.841,75.6464 168.5,79.5C 166.533,79.7394 164.699,79.4061 163,78.5C 161.584,74.733 161.751,71.233 163.5,68C 162.035,64.8981 162.702,62.3981 165.5,60.5 Z"/></g>
<g><path style="opacity:1" fill="#f4fafb" d="M 209.5,70.5 C 214.975,69.5111 220.642,69.1778 226.5,69.5C 232.608,70.0262 238.608,71.1929 244.5,73C 252.052,75.0219 257.552,79.5219 261,86.5C 262.731,97.3742 260.064,107.041 253,115.5C 242.911,127.758 231.411,138.425 218.5,147.5C 214.692,149.573 211.026,151.906 207.5,154.5C 205.77,155.026 204.436,156.026 203.5,157.5C 190.117,164.407 176.451,170.741 162.5,176.5C 162.5,175.833 162.5,175.167 162.5,174.5C 176.091,169.374 188.758,162.707 200.5,154.5C 201.167,154.5 201.5,154.167 201.5,153.5C 206.709,151.281 211.376,148.281 215.5,144.5C 225.025,138.649 233.358,131.316 240.5,122.5C 241.974,121.564 242.974,120.23 243.5,118.5C 248.248,113.352 251.748,107.352 254,100.5C 256.093,91.111 253.26,83.611 245.5,78C 234.172,72.3675 222.172,69.8675 209.5,70.5 Z"/></g>
<g><path style="opacity:1" fill="#dbebe8" d="M 182.5,80.5 C 184.621,80.3253 186.621,80.6586 188.5,81.5C 189.5,83.5 190.5,85.5 191.5,87.5C 189.169,89.8114 186.669,89.8114 184,87.5C 183.5,87.8333 183,88.1667 182.5,88.5C 183.313,89.8139 184.313,90.9805 185.5,92C 184.627,93.045 183.627,93.8783 182.5,94.5C 182.167,94.5 181.833,94.5 181.5,94.5C 180.007,93.6879 179.34,92.3545 179.5,90.5C 179.902,86.8704 180.902,83.5371 182.5,80.5 Z"/></g>
<g><path style="opacity:1" fill="#d9f0e9" d="M 197.5,82.5 C 197.5,82.1667 197.5,81.8333 197.5,81.5C 204.483,81.258 211.149,82.258 217.5,84.5C 216.107,87.0171 214.107,88.6837 211.5,89.5C 207.147,86.6566 202.48,84.3232 197.5,82.5 Z"/></g>
<g><path style="opacity:1" fill="#609194" d="M 197.5,82.5 C 202.48,84.3232 207.147,86.6566 211.5,89.5C 206.5,89.5 201.5,89.5 196.5,89.5C 196.198,86.9407 196.532,84.6074 197.5,82.5 Z"/></g>
<g><path style="opacity:1" fill="#053943" d="M 142.5,83.5 C 141.833,85.5 141.167,87.5 140.5,89.5C 139.425,90.5624 138.425,90.5624 137.5,89.5C 138.709,87.0592 140.376,85.0592 142.5,83.5 Z"/></g>
<g><path style="opacity:1" fill="#47767d" d="M 191.5,87.5 C 192.974,88.4363 193.974,89.7697 194.5,91.5C 191.865,92.8334 189.531,94.6667 187.5,97C 189.473,97.4955 191.473,97.6621 193.5,97.5C 193.5,98.1667 193.167,98.5 192.5,98.5C 188.146,99.2508 184.813,97.9175 182.5,94.5C 183.627,93.8783 184.627,93.045 185.5,92C 184.313,90.9805 183.313,89.8139 182.5,88.5C 183,88.1667 183.5,87.8333 184,87.5C 186.669,89.8114 189.169,89.8114 191.5,87.5 Z"/></g>
<g><path style="opacity:1" fill="#23bfdb" d="M 224.5,102.5 C 227.064,105.28 229.397,108.28 231.5,111.5C 230.549,112.919 230.216,114.585 230.5,116.5C 231.833,116.5 233.167,116.5 234.5,116.5C 235.522,119.522 237.522,121.522 240.5,122.5C 233.358,131.316 225.025,138.649 215.5,144.5C 214.021,140.939 212.688,137.272 211.5,133.5C 211.5,132.833 211.167,132.5 210.5,132.5C 208.574,131.514 206.574,130.514 204.5,129.5C 202.122,127.122 199.455,125.122 196.5,123.5C 197.429,121.678 196.762,120.345 194.5,119.5C 194.5,116.5 194.5,113.5 194.5,110.5C 194.5,106.167 194.5,101.833 194.5,97.5C 194.5,97.1667 194.5,96.8333 194.5,96.5C 195.461,94.7354 195.795,92.7354 195.5,90.5C 201.509,90.3338 207.509,90.5005 213.5,91C 216.669,95.335 220.336,99.1684 224.5,102.5 Z"/></g>
<g><path style="opacity:1" fill="#044247" d="M 194.5,91.5 C 194.5,93.1667 194.5,94.8333 194.5,96.5C 194.5,96.8333 194.5,97.1667 194.5,97.5C 194.167,97.5 193.833,97.5 193.5,97.5C 191.473,97.6621 189.473,97.4955 187.5,97C 189.531,94.6667 191.865,92.8334 194.5,91.5 Z"/></g>
<g><path style="opacity:1" fill="#49adbd" d="M 188.5,81.5 C 191.5,81.5 194.5,81.5 197.5,81.5C 197.5,81.8333 197.5,82.1667 197.5,82.5C 196.532,84.6074 196.198,86.9407 196.5,89.5C 201.5,89.5 206.5,89.5 211.5,89.5C 214.107,88.6837 216.107,87.0171 217.5,84.5C 220.57,87.5638 223.237,90.8971 225.5,94.5C 224.603,93.4019 223.77,93.4019 223,94.5C 222.252,92.6675 221.252,91.0009 220,89.5C 220.086,92.7025 221.086,95.7025 223,98.5C 223.283,95.2577 224.117,94.9244 225.5,97.5C 224.691,99.0709 224.357,100.738 224.5,102.5C 220.336,99.1684 216.669,95.335 213.5,91C 207.509,90.5005 201.509,90.3338 195.5,90.5C 195.795,92.7354 195.461,94.7354 194.5,96.5C 194.5,94.8333 194.5,93.1667 194.5,91.5C 193.974,89.7697 192.974,88.4363 191.5,87.5C 190.5,85.5 189.5,83.5 188.5,81.5 Z"/></g>
<g><path style="opacity:1" fill="#a0f5f5" d="M 180.5,79.5 C 181.492,79.3284 182.158,79.6618 182.5,80.5C 180.902,83.5371 179.902,86.8704 179.5,90.5C 179.34,92.3545 180.007,93.6879 181.5,94.5C 181.5,96.8333 181.5,99.1667 181.5,101.5C 179.393,102.468 177.059,102.802 174.5,102.5C 171.99,102.946 169.99,102.28 168.5,100.5C 170.75,98.756 172.917,96.756 175,94.5C 175.861,89.7235 177.027,85.0569 178.5,80.5C 179.492,80.6716 180.158,80.3382 180.5,79.5 Z"/></g>
<g><path style="opacity:1" fill="#88cbce" d="M 181.5,94.5 C 181.833,94.5 182.167,94.5 182.5,94.5C 184.813,97.9175 188.146,99.2508 192.5,98.5C 192.209,99.6491 191.376,100.316 190,100.5C 187.208,101.216 184.374,101.549 181.5,101.5C 181.5,99.1667 181.5,96.8333 181.5,94.5 Z"/></g>
<g><path style="opacity:1" fill="#e1f1f1" d="M 178.5,80.5 C 177.027,85.0569 175.861,89.7235 175,94.5C 172.917,96.756 170.75,98.756 168.5,100.5C 167.883,100.389 167.383,100.056 167,99.5C 166.52,101.133 165.687,102.466 164.5,103.5C 163.508,103.328 162.842,103.662 162.5,104.5C 158.536,104.489 154.869,105.489 151.5,107.5C 151.414,106.504 151.748,105.671 152.5,105C 155.249,103.877 157.749,102.377 160,100.5C 162.72,94.9454 166.887,90.9454 172.5,88.5C 173.466,86.604 173.799,84.604 173.5,82.5C 173.073,75.3047 174.74,74.638 178.5,80.5 Z"/></g>
<g><path style="opacity:1" fill="#81cdd1" d="M 168.5,100.5 C 169.99,102.28 171.99,102.946 174.5,102.5C 173.791,103.404 172.791,103.737 171.5,103.5C 171.5,104.5 171.5,105.5 171.5,106.5C 170.167,106.5 168.833,106.5 167.5,106.5C 166.833,106.5 166.167,106.5 165.5,106.5C 165.737,105.209 165.404,104.209 164.5,103.5C 165.687,102.466 166.52,101.133 167,99.5C 167.383,100.056 167.883,100.389 168.5,100.5 Z"/></g>
<g><path style="opacity:1" fill="#46848d" d="M 142.5,83.5 C 140.376,85.0592 138.709,87.0592 137.5,89.5C 138.425,90.5624 139.425,90.5624 140.5,89.5C 142.347,95.1973 144.514,100.864 147,106.5C 147.816,107.823 148.983,108.489 150.5,108.5C 151.376,108.369 152.043,108.702 152.5,109.5C 151.212,111.739 150.212,114.072 149.5,116.5C 149.217,117.289 148.717,117.956 148,118.5C 147.506,116.866 147.34,115.199 147.5,113.5C 145.956,108.081 143.622,103.081 140.5,98.5C 134.724,92.7277 132.891,85.7277 135,77.5C 135.333,75.5 135.667,73.5 136,71.5C 139.719,73.791 141.385,77.1243 141,81.5C 142.156,80.0072 142.99,80.1739 143.5,82C 143.43,82.7648 143.097,83.2648 142.5,83.5 Z"/></g>
<g><path style="opacity:1" fill="#4c818d" d="M 164.5,103.5 C 165.404,104.209 165.737,105.209 165.5,106.5C 163.833,107.5 162.5,108.833 161.5,110.5C 160.479,108.477 160.812,106.477 162.5,104.5C 162.842,103.662 163.508,103.328 164.5,103.5 Z"/></g>
<g><path style="opacity:1" fill="#4b9da3" d="M 193.5,97.5 C 193.833,97.5 194.167,97.5 194.5,97.5C 194.5,101.833 194.5,106.167 194.5,110.5C 194.167,110.5 193.833,110.5 193.5,110.5C 193.158,109.662 192.492,109.328 191.5,109.5C 191.918,108.778 192.584,108.278 193.5,108C 189.361,107.759 185.361,107.593 181.5,107.5C 178.606,106.039 175.606,105.206 172.5,105C 173.406,106.699 173.739,108.533 173.5,110.5C 170.663,110.316 168.663,108.982 167.5,106.5C 168.833,106.5 170.167,106.5 171.5,106.5C 171.5,105.5 171.5,104.5 171.5,103.5C 172.791,103.737 173.791,103.404 174.5,102.5C 177.059,102.802 179.393,102.468 181.5,101.5C 184.374,101.549 187.208,101.216 190,100.5C 191.376,100.316 192.209,99.6491 192.5,98.5C 193.167,98.5 193.5,98.1667 193.5,97.5 Z"/></g>
<g><path style="opacity:1" fill="#46acb5" d="M 162.5,104.5 C 160.812,106.477 160.479,108.477 161.5,110.5C 157.849,112.992 153.849,114.992 149.5,116.5C 150.212,114.072 151.212,111.739 152.5,109.5C 152.043,108.702 151.376,108.369 150.5,108.5C 150.5,107.833 150.833,107.5 151.5,107.5C 154.869,105.489 158.536,104.489 162.5,104.5 Z"/></g>
<g><path style="opacity:1" fill="#104956" d="M 181.5,107.5 C 179.064,108.871 176.397,109.871 173.5,110.5C 173.739,108.533 173.406,106.699 172.5,105C 175.606,105.206 178.606,106.039 181.5,107.5 Z"/></g>
<g><path style="opacity:1" fill="#327f8e" d="M 225.5,94.5 C 228.586,99.005 231.42,103.672 234,108.5C 236.074,111.078 238.574,113.078 241.5,114.5C 241.994,116.026 242.661,117.359 243.5,118.5C 242.974,120.23 241.974,121.564 240.5,122.5C 237.522,121.522 235.522,119.522 234.5,116.5C 234.741,113.966 233.741,112.3 231.5,111.5C 229.397,108.28 227.064,105.28 224.5,102.5C 224.357,100.738 224.691,99.0709 225.5,97.5C 224.117,94.9244 223.283,95.2577 223,98.5C 221.086,95.7025 220.086,92.7025 220,89.5C 221.252,91.0009 222.252,92.6675 223,94.5C 223.77,93.4019 224.603,93.4019 225.5,94.5 Z"/></g>
<g><path style="opacity:1" fill="#cee7e9" d="M 140.5,98.5 C 143.622,103.081 145.956,108.081 147.5,113.5C 146.288,114.23 145.288,115.23 144.5,116.5C 141.517,110.922 140.183,104.922 140.5,98.5 Z"/></g>
<g><path style="opacity:1" fill="#26747e" d="M 181.5,107.5 C 185.361,107.593 189.361,107.759 193.5,108C 192.584,108.278 191.918,108.778 191.5,109.5C 187.714,109.32 184.381,110.32 181.5,112.5C 179.421,112.971 177.421,113.637 175.5,114.5C 174.833,113.167 174.167,111.833 173.5,110.5C 176.397,109.871 179.064,108.871 181.5,107.5 Z"/></g>
<g><path style="opacity:1" fill="#e9f4f4" d="M 181.5,112.5 C 182.833,112.5 184.167,112.5 185.5,112.5C 185.736,115.609 185.403,118.609 184.5,121.5C 183.101,122.89 181.434,123.89 179.5,124.5C 178.353,121.053 177.02,117.72 175.5,114.5C 177.421,113.637 179.421,112.971 181.5,112.5 Z"/></g>
<g><path style="opacity:1" fill="#165d69" d="M 193.5,110.5 C 193.833,110.5 194.167,110.5 194.5,110.5C 194.5,113.5 194.5,116.5 194.5,119.5C 191.941,119.802 189.607,119.468 187.5,118.5C 189.147,115.527 191.147,112.86 193.5,110.5 Z"/></g>
<g><path style="opacity:1" fill="#80afae" d="M 231.5,111.5 C 233.741,112.3 234.741,113.966 234.5,116.5C 233.167,116.5 231.833,116.5 230.5,116.5C 230.216,114.585 230.549,112.919 231.5,111.5 Z"/></g>
<g><path style="opacity:1" fill="#b1d6d5" d="M 191.5,109.5 C 192.492,109.328 193.158,109.662 193.5,110.5C 191.147,112.86 189.147,115.527 187.5,118.5C 186.957,118.56 186.624,118.893 186.5,119.5C 188.078,120.298 189.744,120.798 191.5,121C 189.19,121.497 186.857,121.663 184.5,121.5C 185.403,118.609 185.736,115.609 185.5,112.5C 184.167,112.5 182.833,112.5 181.5,112.5C 184.381,110.32 187.714,109.32 191.5,109.5 Z"/></g>
<g><path style="opacity:1" fill="#75c4cc" d="M 187.5,118.5 C 189.607,119.468 191.941,119.802 194.5,119.5C 196.762,120.345 197.429,121.678 196.5,123.5C 194.194,123.993 191.861,124.326 189.5,124.5C 189.5,125.5 189.5,126.5 189.5,127.5C 186.845,128.497 184.845,130.164 183.5,132.5C 182.833,132.167 182.167,131.833 181.5,131.5C 181.233,129.035 180.566,126.701 179.5,124.5C 181.434,123.89 183.101,122.89 184.5,121.5C 186.857,121.663 189.19,121.497 191.5,121C 189.744,120.798 188.078,120.298 186.5,119.5C 186.624,118.893 186.957,118.56 187.5,118.5 Z"/></g>
<g><path style="opacity:1" fill="#3d9da8" d="M 196.5,123.5 C 199.455,125.122 202.122,127.122 204.5,129.5C 199.692,127.758 194.692,127.091 189.5,127.5C 189.5,126.5 189.5,125.5 189.5,124.5C 191.861,124.326 194.194,123.993 196.5,123.5 Z"/></g>
<g><path style="opacity:1" fill="#8af4ef" d="M 181.5,131.5 C 182.167,131.833 182.833,132.167 183.5,132.5C 184.167,132.5 184.5,132.833 184.5,133.5C 179.337,135.849 173.837,137.516 168,138.5C 165.088,138.642 163.588,137.309 163.5,134.5C 162.167,134.5 160.833,134.5 159.5,134.5C 159.167,134.5 158.833,134.5 158.5,134.5C 158.611,133.883 158.944,133.383 159.5,133C 166.829,132.372 174.163,131.872 181.5,131.5 Z"/></g>
<g><path style="opacity:1" fill="#89d6dc" d="M 184.5,133.5 C 187.112,135.052 188.445,137.386 188.5,140.5C 185.5,141.167 182.5,141.833 179.5,142.5C 175.833,142.5 172.167,142.5 168.5,142.5C 167.751,140.754 166.417,139.754 164.5,139.5C 154.868,144.873 153.201,143.206 159.5,134.5C 160.833,134.5 162.167,134.5 163.5,134.5C 163.588,137.309 165.088,138.642 168,138.5C 173.837,137.516 179.337,135.849 184.5,133.5 Z"/></g>
<g><path style="opacity:1" fill="#d2e5e7" d="M 158.5,134.5 C 158.833,134.5 159.167,134.5 159.5,134.5C 153.201,143.206 154.868,144.873 164.5,139.5C 166.417,139.754 167.751,140.754 168.5,142.5C 159.675,143.604 151.008,143.604 142.5,142.5C 147.86,139.82 153.193,137.153 158.5,134.5 Z"/></g>
<g><path style="opacity:1" fill="#135b68" d="M 208.5,132.5 C 205.179,137.152 201.513,141.485 197.5,145.5C 195.236,143.686 192.903,141.853 190.5,140C 196.414,137.198 202.414,134.698 208.5,132.5 Z"/></g>
<g><path style="opacity:1" fill="#2c7b8a" d="M 189.5,127.5 C 194.692,127.091 199.692,127.758 204.5,129.5C 206.574,130.514 208.574,131.514 210.5,132.5C 209.833,132.5 209.167,132.5 208.5,132.5C 202.414,134.698 196.414,137.198 190.5,140C 192.903,141.853 195.236,143.686 197.5,145.5C 192.041,147.892 186.374,149.725 180.5,151C 183.146,151.497 185.813,151.664 188.5,151.5C 185.36,152.641 182.027,152.808 178.5,152C 174.071,150.682 169.738,149.516 165.5,148.5C 170.463,147.014 175.129,145.014 179.5,142.5C 182.5,141.833 185.5,141.167 188.5,140.5C 188.445,137.386 187.112,135.052 184.5,133.5C 184.5,132.833 184.167,132.5 183.5,132.5C 184.845,130.164 186.845,128.497 189.5,127.5 Z"/></g>
<g><path style="opacity:1" fill="#f6fbfb" d="M 219.5,64.5 C 219.5,64.1667 219.5,63.8333 219.5,63.5C 238.929,61.5502 257.262,65.0502 274.5,74C 284.377,80.9074 287.543,90.074 284,101.5C 276.731,115.11 266.897,126.61 254.5,136C 244.444,143.354 234.111,150.187 223.5,156.5C 220.331,157.917 217.331,159.583 214.5,161.5C 212.847,161.66 211.514,162.326 210.5,163.5C 195.707,170.875 180.374,176.875 164.5,181.5C 164.5,180.833 164.5,180.167 164.5,179.5C 179.328,174.418 193.328,167.751 206.5,159.5C 209.331,158.921 211.664,157.588 213.5,155.5C 216.004,154.416 218.337,153.083 220.5,151.5C 241.617,140.554 258.45,124.887 271,104.5C 276.962,90.7177 273.462,79.8843 260.5,72C 247.446,66.2684 233.779,63.7684 219.5,64.5 Z"/></g>
<g><path style="opacity:1" fill="#a5cbca" d="M 142.5,142.5 C 151.008,143.604 159.675,143.604 168.5,142.5C 172.167,142.5 175.833,142.5 179.5,142.5C 175.129,145.014 170.463,147.014 165.5,148.5C 161.833,148.5 158.167,148.5 154.5,148.5C 152.167,148.5 149.833,148.5 147.5,148.5C 146.399,147.402 145.066,147.235 143.5,148C 144.056,148.383 144.389,148.883 144.5,149.5C 143.833,149.5 143.5,149.833 143.5,150.5C 141.416,148.007 141.083,145.34 142.5,142.5 Z"/></g>
<g><path style="opacity:1" fill="#0e4953" d="M 208.5,132.5 C 209.167,132.5 209.833,132.5 210.5,132.5C 211.167,132.5 211.5,132.833 211.5,133.5C 210.503,133.47 209.836,133.97 209.5,135C 208.339,139.14 207.339,143.306 206.5,147.5C 203.436,148.283 200.769,149.616 198.5,151.5C 197.244,151.096 196.077,150.429 195,149.5C 193.272,149.899 191.772,150.566 190.5,151.5C 189.833,151.5 189.167,151.5 188.5,151.5C 185.813,151.664 183.146,151.497 180.5,151C 186.374,149.725 192.041,147.892 197.5,145.5C 201.513,141.485 205.179,137.152 208.5,132.5 Z"/></g>
<g><path style="opacity:1" fill="#186970" d="M 147.5,148.5 C 149.833,148.5 152.167,148.5 154.5,148.5C 155.6,149.605 156.267,150.938 156.5,152.5C 156.44,153.043 156.107,153.376 155.5,153.5C 151.941,152.123 149.275,150.457 147.5,148.5 Z"/></g>
<g><path style="opacity:1" fill="#0b3238" d="M 211.5,133.5 C 212.688,137.272 214.021,140.939 215.5,144.5C 211.376,148.281 206.709,151.281 201.5,153.5C 200.5,152.833 199.5,152.167 198.5,151.5C 200.769,149.616 203.436,148.283 206.5,147.5C 207.339,143.306 208.339,139.14 209.5,135C 209.836,133.97 210.503,133.47 211.5,133.5 Z"/></g>
<g><path style="opacity:1" fill="#26c0db" d="M 154.5,148.5 C 158.167,148.5 161.833,148.5 165.5,148.5C 169.738,149.516 174.071,150.682 178.5,152C 182.027,152.808 185.36,152.641 188.5,151.5C 189.167,151.5 189.833,151.5 190.5,151.5C 194.154,151.5 197.487,152.5 200.5,154.5C 188.758,162.707 176.091,169.374 162.5,174.5C 161.566,173.432 161.232,172.099 161.5,170.5C 162.565,163.601 160.898,157.601 156.5,152.5C 156.267,150.938 155.6,149.605 154.5,148.5 Z"/></g>
<g><path style="opacity:1" fill="#4aa8b5" d="M 147.5,148.5 C 149.275,150.457 151.941,152.123 155.5,153.5C 156.107,153.376 156.44,153.043 156.5,152.5C 160.898,157.601 162.565,163.601 161.5,170.5C 160.694,169.003 160.028,167.336 159.5,165.5C 157.257,164.526 154.924,164.192 152.5,164.5C 151.5,164.5 150.5,164.5 149.5,164.5C 149.5,164.167 149.5,163.833 149.5,163.5C 149.665,160.15 149.498,156.817 149,153.5C 147.629,151.959 146.129,150.625 144.5,149.5C 144.389,148.883 144.056,148.383 143.5,148C 145.066,147.235 146.399,147.402 147.5,148.5 Z"/></g>
<g><path style="opacity:1" fill="#307b88" d="M 198.5,151.5 C 199.5,152.167 200.5,152.833 201.5,153.5C 201.5,154.167 201.167,154.5 200.5,154.5C 197.487,152.5 194.154,151.5 190.5,151.5C 191.772,150.566 193.272,149.899 195,149.5C 196.077,150.429 197.244,151.096 198.5,151.5 Z"/></g>
<g><path style="opacity:1" fill="#0f2d36" d="M 218.5,147.5 C 219.6,148.605 220.267,149.938 220.5,151.5C 218.337,153.083 216.004,154.416 213.5,155.5C 211.265,155.795 209.265,155.461 207.5,154.5C 211.026,151.906 214.692,149.573 218.5,147.5 Z"/></g>
<g><path style="opacity:1" fill="#e6f6f7" d="M 144.5,149.5 C 146.129,150.625 147.629,151.959 149,153.5C 149.498,156.817 149.665,160.15 149.5,163.5C 148.21,162.942 147.377,161.942 147,160.5C 146.105,157.049 144.938,153.716 143.5,150.5C 143.5,149.833 143.833,149.5 144.5,149.5 Z"/></g>
<g><path style="opacity:1" fill="#3c7277" d="M 207.5,154.5 C 209.265,155.461 211.265,155.795 213.5,155.5C 211.664,157.588 209.331,158.921 206.5,159.5C 205.29,159.068 204.29,158.401 203.5,157.5C 204.436,156.026 205.77,155.026 207.5,154.5 Z"/></g>
<g><path style="opacity:1" fill="#1b5c66" d="M 223.5,156.5 C 225.38,156.229 226.713,156.896 227.5,158.5C 230.094,162.026 232.427,165.692 234.5,169.5C 231.777,168.648 229.11,167.481 226.5,166C 222.973,165.192 219.64,165.359 216.5,166.5C 215.662,166.158 215.328,165.492 215.5,164.5C 218.518,164.665 221.518,164.498 224.5,164C 221.048,163.115 217.714,162.282 214.5,161.5C 217.331,159.583 220.331,157.917 223.5,156.5 Z"/></g>
<g><path style="opacity:1" fill="#38c2db" d="M 203.5,157.5 C 204.29,158.401 205.29,159.068 206.5,159.5C 193.328,167.751 179.328,174.418 164.5,179.5C 164.167,179.5 163.833,179.5 163.5,179.5C 162.89,178.609 162.557,177.609 162.5,176.5C 176.451,170.741 190.117,164.407 203.5,157.5 Z"/></g>
<g><path style="opacity:1" fill="#72b1ba" d="M 214.5,161.5 C 217.714,162.282 221.048,163.115 224.5,164C 221.518,164.498 218.518,164.665 215.5,164.5C 213.883,163.962 212.216,163.629 210.5,163.5C 211.514,162.326 212.847,161.66 214.5,161.5 Z"/></g>
<g><path style="opacity:1" fill="#669c9e" d="M 227.5,158.5 C 231.172,161.338 235.172,163.671 239.5,165.5C 239.611,166.117 239.944,166.617 240.5,167C 239.09,168.372 237.423,169.205 235.5,169.5C 235.167,169.5 234.833,169.5 234.5,169.5C 232.427,165.692 230.094,162.026 227.5,158.5 Z"/></g>
<g><path style="opacity:1" fill="#023238" d="M 216.5,166.5 C 219.64,165.359 222.973,165.192 226.5,166C 229.11,167.481 231.777,168.648 234.5,169.5C 233.198,171.822 231.198,173.155 228.5,173.5C 224.5,171.167 220.5,168.833 216.5,166.5 Z"/></g>
<g><path style="opacity:1" fill="#6da0a2" d="M 152.5,164.5 C 154.924,164.192 157.257,164.526 159.5,165.5C 160.028,167.336 160.694,169.003 161.5,170.5C 161.232,172.099 161.566,173.432 162.5,174.5C 162.5,175.167 162.5,175.833 162.5,176.5C 162.557,177.609 162.89,178.609 163.5,179.5C 162.923,180.773 162.257,180.773 161.5,179.5C 159.245,173.98 156.245,168.98 152.5,164.5 Z"/></g>
<g><path style="opacity:1" fill="#1a6270" d="M 234.5,169.5 C 234.833,169.5 235.167,169.5 235.5,169.5C 238.678,171.654 241.345,173.654 243.5,175.5C 241.901,175.232 240.568,175.566 239.5,176.5C 235.603,175.945 231.937,174.945 228.5,173.5C 231.198,173.155 233.198,171.822 234.5,169.5 Z"/></g>
<g><path style="opacity:1" fill="#93b6b7" d="M 239.5,165.5 C 244.118,165.269 248.118,166.769 251.5,170C 256.431,175.438 261.764,180.272 267.5,184.5C 267.672,185.492 267.338,186.158 266.5,186.5C 266.047,185.542 265.381,184.708 264.5,184C 259.523,182.178 254.857,179.845 250.5,177C 247.964,176.814 245.631,176.314 243.5,175.5C 241.345,173.654 238.678,171.654 235.5,169.5C 237.423,169.205 239.09,168.372 240.5,167C 239.944,166.617 239.611,166.117 239.5,165.5 Z"/></g>
<g><path style="opacity:1" fill="#add0cc" d="M 149.5,164.5 C 150.5,164.5 151.5,164.5 152.5,164.5C 156.245,168.98 159.245,173.98 161.5,179.5C 162.257,180.773 162.923,180.773 163.5,179.5C 163.833,179.5 164.167,179.5 164.5,179.5C 164.5,180.167 164.5,180.833 164.5,181.5C 164.5,181.833 164.5,182.167 164.5,182.5C 162.552,184.32 161.552,186.654 161.5,189.5C 160.167,189.5 158.833,189.5 157.5,189.5C 157.784,187.585 157.451,185.919 156.5,184.5C 156.5,183.833 156.167,183.5 155.5,183.5C 155.5,182.167 155.5,180.833 155.5,179.5C 154.5,179.5 153.5,179.5 152.5,179.5C 153.278,178.844 153.944,178.011 154.5,177C 152.542,172.963 150.876,168.796 149.5,164.5 Z"/></g>
<g><path style="opacity:1" fill="#9ee3ec" d="M 152.5,179.5 C 146.526,182.434 140.193,184.267 133.5,185C 139.7,182.655 146.033,180.822 152.5,179.5 Z"/></g>
<g><path style="opacity:1" fill="#c1d8d9" d="M 239.5,176.5 C 240.568,175.566 241.901,175.232 243.5,175.5C 245.631,176.314 247.964,176.814 250.5,177C 254.857,179.845 259.523,182.178 264.5,184C 265.381,184.708 266.047,185.542 266.5,186.5C 264.847,186.66 263.514,187.326 262.5,188.5C 254.718,184.775 247.052,180.775 239.5,176.5 Z"/></g>
<g><path style="opacity:1" fill="#dbf4f7" d="M 155.5,183.5 C 156.167,183.5 156.5,183.833 156.5,184.5C 151.254,186.313 145.921,187.48 140.5,188C 145.485,186.339 150.485,184.839 155.5,183.5 Z"/></g>
<g><path style="opacity:1" fill="#6f9fa1" d="M 164.5,182.5 C 164.527,184.199 165.194,185.533 166.5,186.5C 164.866,187.207 163.532,188.373 162.5,190C 160.866,190.494 159.199,190.66 157.5,190.5C 157.5,190.167 157.5,189.833 157.5,189.5C 158.833,189.5 160.167,189.5 161.5,189.5C 161.552,186.654 162.552,184.32 164.5,182.5 Z"/></g>
<g><path style="opacity:1" fill="#05373d" d="M 166.5,186.5 C 167.167,187.5 167.833,188.5 168.5,189.5C 167.848,190.725 166.681,191.392 165,191.5C 162.183,192.031 159.35,192.364 156.5,192.5C 156.833,191.833 157.167,191.167 157.5,190.5C 159.199,190.66 160.866,190.494 162.5,190C 163.532,188.373 164.866,187.207 166.5,186.5 Z"/></g>
<g><path style="opacity:1" fill="#06363d" d="M 268.5,184.5 C 269.5,184.5 270.5,184.5 271.5,184.5C 272.461,187.426 273.127,190.426 273.5,193.5C 271.533,193.261 269.699,193.594 268,194.5C 268.201,191.223 268.368,187.889 268.5,184.5 Z"/></g>
<g><path style="opacity:1" fill="#9ce4ed" d="M 135.5,188.5 C 136.873,188.343 138.207,188.51 139.5,189C 134.618,190.806 129.618,191.806 124.5,192C 128.333,190.966 131.999,189.8 135.5,188.5 Z"/></g>
<g><path style="opacity:1" fill="#376872" d="M 277.5,183.5 C 279.026,184.492 279.693,185.992 279.5,188C 279.486,189.385 279.152,190.551 278.5,191.5C 278.167,191.5 277.833,191.5 277.5,191.5C 277.5,188.833 277.5,186.167 277.5,183.5 Z"/></g>
<g><path style="opacity:1" fill="#0d3238" d="M 277.5,191.5 C 277.833,191.5 278.167,191.5 278.5,191.5C 278.5,191.833 278.5,192.167 278.5,192.5C 277.833,194.167 277.167,195.833 276.5,197.5C 276.579,196.07 276.246,194.736 275.5,193.5C 275.855,192.478 276.522,191.811 277.5,191.5 Z"/></g>
<g><path style="opacity:1" fill="#328696" d="M 168.5,189.5 C 169.338,189.842 169.672,190.508 169.5,191.5C 165.153,195.845 160.486,199.845 155.5,203.5C 153.054,205.233 150.387,206.067 147.5,206C 148.473,203.453 150.307,201.953 153,201.5C 154.741,198.691 155.908,195.691 156.5,192.5C 159.35,192.364 162.183,192.031 165,191.5C 166.681,191.392 167.848,190.725 168.5,189.5 Z"/></g>
<g><path style="opacity:1" fill="#417984" d="M 171.5,192.5 C 172.525,192.897 172.692,193.563 172,194.5C 169.322,197.518 166.489,199.518 163.5,200.5C 166.473,198.194 169.14,195.527 171.5,192.5 Z"/></g>
<g><path style="opacity:1" fill="#5f9da8" d="M 271.5,184.5 C 273.179,184.285 274.179,184.952 274.5,186.5C 274.175,194.019 274.508,201.352 275.5,208.5C 275.217,209.289 274.717,209.956 274,210.5C 273.501,204.843 273.334,199.176 273.5,193.5C 273.127,190.426 272.461,187.426 271.5,184.5 Z"/></g>
<g><path style="opacity:1" fill="#266973" d="M 278.5,192.5 C 278.81,195.713 278.477,198.713 277.5,201.5C 277.167,200.167 276.833,198.833 276.5,197.5C 277.167,195.833 277.833,194.167 278.5,192.5 Z"/></g>
<g><path style="opacity:1" fill="#e5f3f5" d="M 169.5,191.5 C 170.492,191.328 171.158,191.662 171.5,192.5C 169.14,195.527 166.473,198.194 163.5,200.5C 161.357,202.074 159.024,203.408 156.5,204.5C 155.893,204.376 155.56,204.043 155.5,203.5C 160.486,199.845 165.153,195.845 169.5,191.5 Z"/></g>
<g><path style="opacity:1" fill="#dcebec" d="M 277.5,183.5 C 277.5,186.167 277.5,188.833 277.5,191.5C 276.522,191.811 275.855,192.478 275.5,193.5C 276.246,194.736 276.579,196.07 276.5,197.5C 276.833,198.833 277.167,200.167 277.5,201.5C 277.567,202.959 277.234,204.292 276.5,205.5C 275.89,206.391 275.557,207.391 275.5,208.5C 274.508,201.352 274.175,194.019 274.5,186.5C 275.1,185.1 276.1,184.1 277.5,183.5 Z"/></g>
<g><path style="opacity:1" fill="#30828f" d="M 267.5,184.5 C 267.833,184.5 268.167,184.5 268.5,184.5C 268.368,187.889 268.201,191.223 268,194.5C 269.699,193.594 271.533,193.261 273.5,193.5C 273.334,199.176 273.501,204.843 274,210.5C 274.717,209.956 275.217,209.289 275.5,208.5C 275.557,207.391 275.89,206.391 276.5,205.5C 277.567,209.508 275.901,211.841 271.5,212.5C 272.544,206.926 271.044,202.259 267,198.5C 265.626,196.176 265.293,193.843 266,191.5C 264.482,190.837 263.315,189.837 262.5,188.5C 263.514,187.326 264.847,186.66 266.5,186.5C 267.338,186.158 267.672,185.492 267.5,184.5 Z"/></g>
</svg>
