<?xml version="1.0" encoding="UTF-8"?>
<!DOCTYPE svg PUBLIC "-//W3C//DTD SVG 1.1//EN" "http://www.w3.org/Graphics/SVG/1.1/DTD/svg11.dtd">
<svg xmlns="http://www.w3.org/2000/svg" version="1.1" width="410px" height="570px" style="shape-rendering:geometricPrecision; text-rendering:geometricPrecision; image-rendering:optimizeQuality; fill-rule:evenodd; clip-rule:evenodd" xmlns:xlink="http://www.w3.org/1999/xlink">
<g><path style="opacity:1" fill="#e89421" d="M -0.5,-0.5 C 136.167,-0.5 272.833,-0.5 409.5,-0.5C 409.5,189.5 409.5,379.5 409.5,569.5C 272.833,569.5 136.167,569.5 -0.5,569.5C -0.5,379.5 -0.5,189.5 -0.5,-0.5 Z"/></g>
<g><path style="opacity:1" fill="#fdfcfb" d="M 203.5,189.5 C 198.04,188.171 192.207,187.504 186,187.5C 179.99,187.501 174.157,187.834 168.5,188.5C 165.357,189.134 162.857,190.8 161,193.5C 155.11,202.778 148.61,211.611 141.5,220C 124.679,225.718 115.679,219.551 114.5,201.5C 117.103,181.087 121.603,161.087 128,141.5C 130.833,134.667 135.667,129.833 142.5,127C 159.163,126.5 175.83,126.333 192.5,126.5C 192.15,115.451 192.65,104.451 194,93.5C 204.924,70.6368 222.424,63.1368 246.5,71C 257.913,76.0782 265.413,84.5782 269,96.5C 269.5,106.494 269.666,116.494 269.5,126.5C 277.553,128.869 282.72,134.202 285,142.5C 285.667,159.5 285.667,176.5 285,193.5C 283.848,202.971 280.015,211.137 273.5,218C 260.922,226.043 251.255,223.376 244.5,210C 230.771,211.666 218.938,207.832 209,198.5C 206.653,195.806 204.82,192.806 203.5,189.5 Z"/></g>
<g><path style="opacity:1" fill="#e79421" d="M 254.5,102.5 C 254.5,108.5 254.5,114.5 254.5,120.5C 238.833,120.5 223.167,120.5 207.5,120.5C 207.5,116.5 207.5,112.5 207.5,108.5C 208.273,89.8936 217.94,81.3936 236.5,83C 246.531,85.8612 252.531,92.3612 254.5,102.5 Z"/></g>
<g><path style="opacity:1" fill="#dcd6cd" d="M 254.5,102.5 C 255.49,108.645 255.823,114.978 255.5,121.5C 239.167,121.5 222.833,121.5 206.5,121.5C 206.182,116.968 206.515,112.634 207.5,108.5C 207.5,112.5 207.5,116.5 207.5,120.5C 223.167,120.5 238.833,120.5 254.5,120.5C 254.5,114.5 254.5,108.5 254.5,102.5 Z"/></g>
<g><path style="opacity:1" fill="#e79422" d="M 223.5,139.5 C 227.604,139.884 231.271,141.384 234.5,144C 242.234,149.396 250.234,154.396 258.5,159C 259.935,161.267 259.602,163.267 257.5,165C 247.35,171.823 236.85,177.99 226,183.5C 224.893,183.415 223.893,183.081 223,182.5C 222.185,168.092 222.352,153.759 223.5,139.5 Z"/></g>
<g><path style="opacity:1" fill="#e49429" d="M 150.5,141.5 C 153.777,141.216 156.943,141.549 160,142.5C 160.498,145.817 160.665,149.15 160.5,152.5C 163.85,152.335 167.183,152.502 170.5,153C 171.833,156.667 171.833,160.333 170.5,164C 167.183,164.498 163.85,164.665 160.5,164.5C 160.665,168.182 160.499,171.848 160,175.5C 156.667,176.833 153.333,176.833 150,175.5C 149.501,171.848 149.335,168.182 149.5,164.5C 146.15,164.665 142.817,164.498 139.5,164C 138.167,160.333 138.167,156.667 139.5,153C 142.817,152.502 146.15,152.335 149.5,152.5C 149.244,148.731 149.577,145.064 150.5,141.5 Z"/></g>
<g><path style="opacity:1" fill="#eadcc9" d="M 168.5,188.5 C 174.157,187.834 179.99,187.501 186,187.5C 192.207,187.504 198.04,188.171 203.5,189.5C 191.914,188.522 180.247,188.189 168.5,188.5 Z"/></g>
</svg>
