<?xml version="1.0" encoding="UTF-8"?>
<!DOCTYPE svg PUBLIC "-//W3C//DTD SVG 1.1//EN" "http://www.w3.org/Graphics/SVG/1.1/DTD/svg11.dtd">
<svg xmlns="http://www.w3.org/2000/svg" version="1.1" width="410px" height="570px" style="shape-rendering:geometricPrecision; text-rendering:geometricPrecision; image-rendering:optimizeQuality; fill-rule:evenodd; clip-rule:evenodd" xmlns:xlink="http://www.w3.org/1999/xlink">
<g><path style="opacity:1" fill="#fe6a01" d="M -0.5,-0.5 C 136.167,-0.5 272.833,-0.5 409.5,-0.5C 409.5,189.5 409.5,379.5 409.5,569.5C 272.833,569.5 136.167,569.5 -0.5,569.5C -0.5,379.5 -0.5,189.5 -0.5,-0.5 Z"/></g>
<g><path style="opacity:1" fill="#030101" d="M 144.5,74.5 C 177.502,74.3334 210.502,74.5 243.5,75C 250.203,76.6999 254.703,80.8665 257,87.5C 257.667,120.167 257.667,152.833 257,185.5C 254.52,194.308 248.687,199.141 239.5,200C 209.5,200.667 179.5,200.667 149.5,200C 138.533,198.699 132.699,192.533 132,181.5C 131.333,150.5 131.333,119.5 132,88.5C 133.926,81.7448 138.093,77.0781 144.5,74.5 Z"/></g>
<g><path style="opacity:1" fill="#fafafa" d="M 189.5,102.5 C 194.833,102.5 200.167,102.5 205.5,102.5C 205.667,120.836 205.5,139.17 205,157.5C 201.03,167.995 193.364,172.995 182,172.5C 163.891,172.556 155.724,163.556 157.5,145.5C 163.167,145.5 168.833,145.5 174.5,145.5C 173.571,150.765 174.904,155.265 178.5,159C 183.768,160.45 187.268,158.617 189,153.5C 189.5,136.503 189.667,119.503 189.5,102.5 Z"/></g>
<g><path style="opacity:1" fill="#f96b05" d="M 217.5,153.5 C 229.275,151.783 234.775,156.783 234,168.5C 230.834,175.006 225.667,177.506 218.5,176C 208.269,168.828 207.936,161.328 217.5,153.5 Z"/></g>
</svg>
